<svg width="21" height="20" viewBox="0 0 21 20" fill="none" xmlns="http://www.w3.org/2000/svg">
<path d="M7.72412 3.67871C7.72412 3.67871 7.72412 4.13518 7.77091 4.82556C7.77152 4.82933 7.77152 4.83318 7.77091 4.83694C7.77091 4.87488 7.77343 4.91408 7.77849 4.95454C7.77916 4.95569 7.77951 4.957 7.77951 4.95833C7.77951 4.95966 7.77916 4.96097 7.77849 4.96212C7.78734 5.07845 7.79746 5.2011 7.80884 5.32755C7.80884 5.32755 7.80884 5.33387 7.80884 5.3364C8.01115 7.61873 8.69395 11.4525 10.9927 11.4525C14.2638 11.4525 14.1374 3.67871 14.1374 3.67871H7.72412ZM10.9952 11.0289C10.4123 11.0289 9.94449 10.7609 9.57021 10.331C9.88264 10.5876 10.2748 10.7271 10.6791 10.7255C13.1701 10.7255 13.5545 5.83712 13.6139 4.32611C13.8175 4.28565 13.8061 4.23886 13.8061 4.18955H13.815C13.815 4.18955 13.9414 11.0289 10.9952 11.0289Z" fill="#020202"/>
<path d="M11.2446 13.3403C11.2446 15.6618 12.1107 16.5444 10.9689 16.5444C9.90552 16.5444 10.7489 15.6592 10.7489 13.3403C10.7489 11.0213 10.4442 10.9644 10.9386 10.9644C11.433 10.9644 11.2446 11.0187 11.2446 13.3403Z" fill="#020202"/>
<path d="M13.0436 16.3638C13.0436 16.5901 12.1269 16.7002 10.9952 16.7002C9.8635 16.7002 8.94678 16.5901 8.94678 16.3638C8.94678 16.1375 9.8635 15.791 10.9952 15.791C12.1269 15.791 13.0436 16.1375 13.0436 16.3638Z" fill="#020202"/>
<path d="M14.1299 3.67869C14.1299 3.86962 12.796 4.02388 10.9954 4.02388C9.19481 4.02388 7.73438 3.86962 7.73438 3.67869C7.73438 3.48776 9.19355 3.3335 10.9954 3.3335C12.7972 3.3335 14.1299 3.48776 14.1299 3.67869Z" fill="#CDE1E7"/>
<path d="M13.8136 4.18945C13.8136 4.18945 13.8136 4.24888 13.8136 4.35636C13.8136 4.39514 13.8136 4.44066 13.8136 4.49292C13.8136 4.54518 13.8136 4.5907 13.8136 4.62948C13.7529 6.14682 13.4962 11.0288 11.004 11.0288C10.5997 11.0301 10.2077 10.8906 9.89503 10.6343C8.68749 9.686 8.27148 7.23171 8.12607 5.63977C8.12607 5.63977 8.12607 5.63977 8.12607 5.63092C8.11469 5.50448 8.10584 5.37803 8.09573 5.2655V5.25791L8.08814 5.14032C8.08875 5.13655 8.08875 5.13271 8.08814 5.12894C8.05273 4.55994 8.05273 4.18945 8.05273 4.18945H13.8136Z" fill="#B7252C"/>
<path d="M13.4455 4.77246C13.4455 4.77246 13.4455 10.4043 11.1 10.4043C10.6347 10.4043 10.5057 10.1514 10.8471 10.1514C12.8323 10.1514 13.1383 6.08749 13.1851 4.83189C13.3469 4.79901 13.4455 4.77246 13.4455 4.77246Z" fill="#A5202D"/>
<path d="M13.8063 4.18972C13.8063 4.23904 13.8177 4.28582 13.6141 4.32628C13.1285 4.42491 12.1385 4.49319 10.9954 4.49319C9.36807 4.49319 8.05811 4.35663 8.05811 4.18972C8.05811 4.09236 8.45641 4.01397 9.0861 3.96592C9.59947 3.9204 10.2671 3.89258 10.9954 3.89258C11.7237 3.89258 12.3863 3.9204 12.9047 3.96592C13.1456 3.98414 13.3854 4.01537 13.6229 4.05949C13.8215 4.09236 13.8063 4.14041 13.8063 4.18972Z" fill="#A5202D"/>
</svg>
