<svg width="24" height="23" viewBox="0 0 24 23" fill="none" xmlns="http://www.w3.org/2000/svg">
<path d="M18.0026 14.0749C19.9674 12.3982 19.6911 8.84779 17.386 6.14468C15.0808 3.44156 11.617 2.60812 9.65099 4.28457C9.10236 4.76011 8.70809 5.38853 8.51866 6.08942C8.47432 6.24011 8.38686 6.37454 8.26705 6.47612L3.22997 10.7722C2.93133 11.0271 2.86562 11.4388 3.0801 11.6911L9.65215 19.3968C9.86782 19.6493 10.2844 19.6475 10.583 19.3925L15.6201 15.0965C15.7392 14.9938 15.886 14.9285 16.042 14.9089C16.7639 14.8319 17.4465 14.5416 18.0026 14.0749Z" fill="#996D45"/>
<path d="M17.2218 13.2422C19.1878 11.5657 18.9115 8.0153 16.6051 5.31197C14.2988 2.60864 10.8362 1.77541 8.87133 3.45207C8.32191 3.92705 7.92715 4.55555 7.73783 5.25671C7.69395 5.40762 7.60641 5.54216 7.48622 5.64341L2.44926 9.9456C2.15062 10.2005 2.08491 10.6122 2.29821 10.8643L8.86896 18.5636C9.08344 18.8159 9.50116 18.8144 9.7998 18.5594L14.8357 14.2631C14.9548 14.1604 15.1016 14.0952 15.2577 14.0756C15.9808 13.9997 16.6647 13.7095 17.2218 13.2422Z" fill="#A37644"/>
<path d="M16.8106 12.9768C18.6688 11.3908 18.4417 8.07501 16.306 5.56235C14.1703 3.0497 10.9277 2.30984 9.07035 3.89117C8.55532 4.33685 8.1815 4.92311 7.9947 5.57808C7.94954 5.72585 7.8631 5.85762 7.74556 5.95791L3.02009 9.98794C2.72145 10.2429 2.65574 10.6546 2.87022 10.9069L8.90634 17.9837C9.122 18.2362 9.53853 18.2344 9.83717 17.9795L14.5615 13.9492C14.6793 13.8486 14.8236 13.784 14.9771 13.763C15.6516 13.6843 16.2886 13.4112 16.8106 12.9768Z" fill="#F9F2C7"/>
<path d="M10.532 5.95938C9.758 7.11726 7.60643 5.51839 7.56314 7.34878C7.52107 9.13178 6.71581 8.812 6.47921 9.25756C5.58394 10.9392 6.54276 14.1635 9.01364 13.1054C12.0557 11.8037 14.2434 14.1024 14.9232 13.0947C15.6029 12.0871 18.1368 10.7608 16.0696 8.60593C15.4241 7.93535 12.9218 2.37959 10.532 5.95938Z" fill="white"/>
<path d="M10.4859 10.7965C11.2667 10.9373 12.0138 10.4185 12.1547 9.63768C12.2955 8.85685 11.7767 8.10969 10.9958 7.96886C10.215 7.82803 9.46787 8.34686 9.32704 9.12769C9.18621 9.90852 9.70503 10.6557 10.4859 10.7965Z" fill="#F4DB24"/>
<path d="M11.9627 9.04382C12.0276 9.30696 11.9758 9.54662 11.8454 9.57925C11.715 9.61188 11.8449 9.35212 11.78 9.08899C11.7152 8.82586 11.4781 8.65859 11.6084 8.62596C11.7388 8.59333 11.8979 8.78069 11.9627 9.04382Z" fill="#F9F3E2"/>
</svg>
