<svg width="21" height="20" viewBox="0 0 21 20" fill="none" xmlns="http://www.w3.org/2000/svg">
<path d="M19.369 11.4248C19.3668 9.64551 15.6149 8.20764 10.9889 8.21327C6.3629 8.2189 2.61452 9.66589 2.61669 11.4452C2.61885 13.2246 6.37074 14.6624 10.9968 14.6568C15.6228 14.6512 19.3712 13.2042 19.369 11.4248Z" fill="#ABABAB"/>
<path d="M19.3695 11.1744C19.3673 9.39502 15.6154 7.95715 10.9894 7.96277C6.36339 7.9684 2.61501 9.4154 2.61717 11.1947C2.61934 12.9741 6.37123 14.4119 10.9973 14.4063C15.6233 14.4007 19.3717 12.9537 19.3695 11.1744Z" fill="black"/>
<path d="M15.0427 12.1591C15.0629 11.5115 13.1493 10.9263 10.7684 10.8519C8.38761 10.7775 6.44116 11.242 6.42092 11.8896C6.40068 12.5371 8.31432 13.1223 10.6952 13.1968C13.076 13.2712 15.0224 12.8066 15.0427 12.1591Z" fill="#F8EBB6"/>
<path d="M15.0866 10.7216L6.46484 10.4521L6.41994 11.8889L15.0417 12.1584L15.0866 10.7216Z" fill="#F8EBB6"/>
<path d="M15.0876 10.7216C15.1078 10.074 13.1942 9.48879 10.8134 9.41437C8.43254 9.33996 6.48609 9.80455 6.46585 10.4521C6.44561 11.0996 8.35925 11.6848 10.7401 11.7593C13.1209 11.8337 15.0674 11.3691 15.0876 10.7216Z" fill="#E0B876"/>
<path d="M15.0954 10.4442C15.1156 9.79669 13.202 9.21145 10.8212 9.13703C8.44035 9.06261 6.4939 9.52721 6.47366 10.1747C6.45342 10.8222 8.36706 11.4075 10.7479 11.4819C13.1287 11.5563 15.0752 11.0917 15.0954 10.4442Z" fill="#F8EBB6"/>
<path d="M15.1393 9.00728L6.51758 8.73779L6.47267 10.1745L15.0944 10.444L15.1393 9.00728Z" fill="#F8EBB6"/>
<path d="M15.1408 9.0072C15.1611 8.35968 13.2474 7.77443 10.8666 7.70002C8.48576 7.6256 6.53931 8.09019 6.51907 8.73772C6.49883 9.38524 8.41247 9.97048 10.7933 10.0449C13.1741 10.1193 15.1206 9.65472 15.1408 9.0072Z" fill="#E0B876"/>
<path d="M15.1491 8.74695C15.1694 8.09943 13.2557 7.51418 10.8749 7.43976C8.49406 7.36535 6.54761 7.82994 6.52737 8.47746C6.50713 9.12498 8.42077 9.71023 10.8016 9.78465C13.1824 9.85906 15.1289 9.39447 15.1491 8.74695Z" fill="#F8EBB6"/>
<path d="M15.193 7.30904L6.57129 7.03955L6.52638 8.47627L15.1481 8.74575L15.193 7.30904Z" fill="#F8EBB6"/>
<path d="M15.194 7.30945C15.2143 6.66193 13.3006 6.07668 10.9198 6.00226C8.53899 5.92785 6.59253 6.39244 6.57229 7.03996C6.55205 7.68748 8.46569 8.27273 10.8465 8.34715C13.2274 8.42156 15.1738 7.95697 15.194 7.30945Z" fill="#D6A661"/>
<path opacity="0.65" d="M8.28385 6.35153C7.98483 6.51708 7.06376 6.6031 7.18386 7.02325C7.30396 7.4434 8.10358 8.14721 8.10881 8.92588C8.11404 9.70455 8.78143 9.79983 8.99531 8.95375C9.20918 8.10767 9.36351 11.2361 10.3147 11.0596C11.2658 10.883 10.3909 9.17217 10.5513 8.89048C10.7117 8.60878 12.0647 8.30701 12.1805 9.45843C12.2963 10.6098 12.1529 11.6276 12.6542 11.2465C13.1556 10.8655 12.9375 9.43894 13.3083 9.0725C13.679 8.70607 14.7401 8.07078 14.7372 7.56263C14.7343 7.05448 14.9829 6.9334 14.9829 6.9334C14.9829 6.9334 14.6735 6.21273 11.8534 6.06202C9.03332 5.9113 8.93831 5.98848 8.28385 6.35153Z" fill="#7F5222"/>
<path d="M11.0805 6.626L9.8252 6.56152L9.8047 6.96052L11.0601 7.025L11.0805 6.626Z" fill="#F6ECC9"/>
<path d="M11.6133 6.85553L11.0647 7.02012L11.0855 6.62091L11.6341 6.45632L11.6133 6.85553Z" fill="#EFE5CA"/>
<path d="M11.0854 6.62085L9.83013 6.55663L10.3787 6.39204L11.634 6.45626L11.0854 6.62085Z" fill="#FEF7DD"/>
</svg>
